<svg width="22" height="22" viewBox="0 0 22 22" fill="none" xmlns="http://www.w3.org/2000/svg">
<path d="M20.4821 12.0621L15.3737 12.664L12.375 10.9327L15.3737 9.20144L20.4821 9.80331C20.5102 9.80662 20.5383 9.80825 20.5659 9.80825C20.9204 9.80825 21.2267 9.54287 21.2692 9.18215C21.315 8.79328 21.0369 8.4409 20.648 8.39509L17.4275 8.01568L19.4338 6.85737C19.7729 6.66156 19.8891 6.22796 19.6933 5.88885C19.4975 5.54975 19.064 5.43352 18.7248 5.62932L16.7185 6.78763L18.0001 3.80891C18.1549 3.44922 17.9888 3.03221 17.6291 2.87743C17.2695 2.7227 16.8524 2.88878 16.6976 3.24847L14.6646 7.97344L11.7272 9.66942V6.20678L14.8025 2.08371C15.0367 1.76983 14.972 1.32562 14.6582 1.09152C14.3443 0.857429 13.9001 0.922054 13.666 1.23594L11.7272 3.83521V1.75702C11.7272 1.36545 11.4097 1.04804 11.0182 1.04804C10.6267 1.04804 10.3092 1.36545 10.3092 1.75702V3.83525L8.37037 1.23594C8.13623 0.922054 7.69198 0.857472 7.37818 1.09152C7.06429 1.32566 6.99967 1.76987 7.23376 2.08371L10.3092 6.20682V9.73997L7.24936 7.97335L5.21638 3.24847C5.0616 2.88882 4.64459 2.7227 4.2849 2.87743C3.92521 3.03221 3.75909 3.44926 3.91387 3.80891L5.19554 6.78763L3.39575 5.74852C3.05664 5.5528 2.62304 5.66894 2.42723 6.00805C2.23147 6.34716 2.34761 6.78076 2.68676 6.97657L4.48655 8.01568L1.26605 8.39509C0.877179 8.4409 0.599085 8.79328 0.64489 9.18215C0.687386 9.54287 0.993624 9.80829 1.34812 9.80825C1.37579 9.80825 1.4038 9.80662 1.43195 9.80331L6.54042 9.20144L9.53908 10.9327L6.54042 12.664L1.43199 12.0621C1.043 12.0164 0.690738 12.2944 0.644933 12.6833C0.599128 13.0722 0.877222 13.4245 1.26609 13.4703L4.48655 13.8498L2.68681 14.8888C2.3477 15.0846 2.23151 15.5182 2.42728 15.8573C2.55859 16.0848 2.79689 16.2119 3.04194 16.2119C3.16221 16.2119 3.28412 16.1812 3.39575 16.1168L5.19558 15.0777L3.91387 18.0564C3.75909 18.4161 3.92525 18.8331 4.2849 18.9879C4.37328 19.0261 4.46853 19.0458 4.5648 19.0458C4.8395 19.0458 5.10096 18.8853 5.21642 18.6169L7.24944 13.892L10.3092 12.1254V15.5879L7.2338 19.711C6.99971 20.0249 7.06433 20.4691 7.37822 20.7032C7.50041 20.7947 7.64896 20.8441 7.80159 20.844C8.01777 20.844 8.23124 20.7454 8.37046 20.5588L10.3093 17.9595V20.2762C10.3093 20.6677 10.6267 20.9852 11.0183 20.9852C11.4098 20.9852 11.7273 20.6677 11.7273 20.2762V17.9595L13.6661 20.5588C13.9001 20.8727 14.3444 20.9373 14.6582 20.7032C14.9721 20.4691 15.0368 20.0249 14.8026 19.711L11.7273 15.5879V12.1959L14.6647 13.8919L16.6978 18.6168C16.8132 18.8852 17.0746 19.0458 17.3493 19.0458C17.4456 19.0457 17.5409 19.026 17.6292 18.9878C17.9889 18.8331 18.155 18.416 18.0003 18.0564L16.7186 15.0776L18.7249 16.2359C18.8324 16.2983 18.9544 16.3311 19.0787 16.3311C19.3237 16.3311 19.5621 16.2039 19.6934 15.9765C19.8892 15.6373 19.773 15.2037 19.4339 15.008L17.4277 13.8497L20.6481 13.4703C21.037 13.4245 21.315 13.072 21.2692 12.6832C21.2234 12.2945 20.8713 12.0163 20.4821 12.0621V12.0621Z" fill="#59CAFC"/>
</svg>
