<svg width="25" height="25" viewBox="0 0 25 25" fill="none" xmlns="http://www.w3.org/2000/svg">
<path d="M24.6113 11.6602H21.9824L24.0469 9.59571C24.0977 9.54492 24.127 9.47461 24.127 9.4043C24.127 9.33203 24.0977 9.26172 24.0469 9.21094L23.2422 8.40625C23.191 8.35556 23.1219 8.32713 23.0498 8.32713C22.9778 8.32713 22.9086 8.35556 22.8574 8.40625L19.6055 11.6602H14.5293L18.1191 8.07031H22.7188C22.8691 8.07031 22.9902 7.94922 22.9902 7.79883V6.66016C22.9902 6.58984 22.9629 6.51953 22.9102 6.46875C22.8594 6.41602 22.791 6.38867 22.7188 6.38867H19.7988L21.6582 4.53125C21.709 4.48047 21.7383 4.41016 21.7383 4.33984C21.7383 4.26758 21.709 4.19727 21.6582 4.14648L20.8535 3.3418C20.8023 3.29111 20.7332 3.26267 20.6611 3.26267C20.5891 3.26267 20.52 3.29111 20.4688 3.3418L18.6094 5.20313V2.28125C18.6094 2.21094 18.582 2.14063 18.5293 2.08984C18.4785 2.03711 18.4102 2.00977 18.3379 2.00977H17.2012C17.0508 2.00977 16.9297 2.13086 16.9297 2.28125V6.88086L13.3398 10.4707V5.39453L16.5938 2.14258C16.6444 2.09138 16.6729 2.02224 16.6729 1.9502C16.6729 1.87815 16.6444 1.80901 16.5938 1.75781L15.7891 0.953125C15.7383 0.902344 15.6699 0.873047 15.5977 0.873047C15.5254 0.873047 15.4551 0.902344 15.4063 0.953125L13.3398 3.01758V0.388672C13.3398 0.238281 13.2188 0.117188 13.0684 0.117188H11.9316C11.7813 0.117188 11.6602 0.238281 11.6602 0.388672V3.01758L9.59571 0.953125C9.49414 0.84961 9.3125 0.84961 9.21094 0.953125L8.40625 1.75781C8.35556 1.80901 8.32713 1.87815 8.32713 1.9502C8.32713 2.02224 8.35556 2.09138 8.40625 2.14258L11.6582 5.39453V10.4707L8.07031 6.88086V2.28125C8.07031 2.13086 7.94922 2.00977 7.79883 2.00977H6.66016C6.58789 2.00977 6.51953 2.03711 6.46875 2.08984C6.41797 2.14063 6.38867 2.20898 6.38867 2.28125V5.19922L4.53125 3.33984C4.48005 3.28915 4.41092 3.26072 4.33887 3.26072C4.26682 3.26072 4.19768 3.28915 4.14648 3.33984L3.3418 4.14453C3.29111 4.19573 3.26267 4.26487 3.26267 4.33691C3.26267 4.40896 3.29111 4.4781 3.3418 4.5293L5.20117 6.38672H2.28125C2.13086 6.38672 2.00977 6.50781 2.00977 6.6582V7.79688C2.00977 7.86914 2.03711 7.9375 2.08984 7.98828C2.14063 8.04102 2.21094 8.06836 2.28125 8.06836H6.88086L10.4707 11.6602H5.39453L2.14258 8.40625C2.09138 8.35556 2.02224 8.32713 1.9502 8.32713C1.87815 8.32713 1.80901 8.35556 1.75781 8.40625L0.953125 9.21094C0.927815 9.23618 0.907733 9.26616 0.894031 9.29917C0.880328 9.33219 0.873275 9.36758 0.873275 9.40332C0.873275 9.43907 0.880328 9.47446 0.894031 9.50747C0.907733 9.54048 0.927815 9.57047 0.953125 9.59571L3.01758 11.6602H0.388672C0.238281 11.6602 0.117188 11.7832 0.117188 11.9316V13.0684C0.117188 13.2188 0.238281 13.3398 0.388672 13.3398H3.01758L0.953125 15.4023C0.902344 15.4551 0.873047 15.5215 0.873047 15.5957C0.873047 15.666 0.900391 15.7363 0.953125 15.7871L1.75781 16.5918C1.81055 16.6465 1.88086 16.6719 1.94922 16.6719C2.01758 16.6719 2.08789 16.6465 2.14063 16.5918L5.39453 13.3398H10.4707L6.88086 16.9297H2.28125C2.13086 16.9297 2.00977 17.0508 2.00977 17.2012V18.3379C2.00977 18.4102 2.03906 18.4805 2.08984 18.5313C2.14063 18.582 2.20898 18.6094 2.28125 18.6094H5.20117L3.3418 20.4668C3.29111 20.518 3.26267 20.5871 3.26267 20.6592C3.26267 20.7312 3.29111 20.8004 3.3418 20.8516L4.14648 21.6563C4.17152 21.6816 4.20132 21.7017 4.23418 21.7154C4.26703 21.7291 4.30229 21.7362 4.33789 21.7362C4.3735 21.7362 4.40875 21.7291 4.4416 21.7154C4.47446 21.7017 4.50427 21.6816 4.5293 21.6563L6.38867 19.7969V22.7168C6.38867 22.7891 6.41602 22.8574 6.46875 22.9082C6.51953 22.959 6.58789 22.9883 6.66016 22.9883L7.79688 22.9863C7.94727 22.9863 8.06836 22.8652 8.06836 22.7148V18.1191L11.6563 14.5293V19.6055L8.4043 22.8574C8.35361 22.9086 8.32517 22.9778 8.32517 23.0498C8.32517 23.1219 8.35361 23.191 8.4043 23.2422L9.20899 24.0469C9.25977 24.0977 9.32813 24.125 9.40039 24.125C9.47266 24.125 9.54297 24.0977 9.5918 24.0469L11.6563 21.9824V24.6113C11.6563 24.7617 11.7773 24.8828 11.9277 24.8828H13.0645C13.2148 24.8828 13.3359 24.7598 13.3359 24.6113V21.9824L15.4004 24.0469C15.4512 24.0977 15.5195 24.125 15.5918 24.125C15.6641 24.125 15.7324 24.0977 15.7832 24.0469L16.5879 23.2422C16.6386 23.191 16.667 23.1219 16.667 23.0498C16.667 22.9778 16.6386 22.9086 16.5879 22.8574L13.3398 19.6055V14.5273L16.9297 18.1172V22.7168C16.9297 22.8672 17.0508 22.9883 17.2012 22.9883H18.3379C18.4102 22.9883 18.4805 22.9609 18.5293 22.9102C18.5801 22.8594 18.6094 22.791 18.6094 22.7168V19.7988L20.4688 21.6582C20.4938 21.6835 20.5236 21.7036 20.5564 21.7174C20.5893 21.7311 20.6246 21.7381 20.6602 21.7381C20.6958 21.7381 20.731 21.7311 20.7639 21.7174C20.7967 21.7036 20.8265 21.6835 20.8516 21.6582L21.6543 20.8535C21.6798 20.8284 21.7 20.7984 21.7137 20.7654C21.7275 20.7324 21.7346 20.6969 21.7346 20.6611C21.7346 20.6253 21.7275 20.5899 21.7137 20.5569C21.7 20.5239 21.6798 20.4939 21.6543 20.4688L19.7949 18.6113H22.7129C22.8633 18.6113 22.9844 18.4883 22.9844 18.3398V17.2031C22.9844 17.0527 22.8633 16.9316 22.7129 16.9316H18.1191L14.5293 13.3398H19.6055L22.8574 16.5918C22.9102 16.6465 22.9805 16.6719 23.0488 16.6719C23.1172 16.6719 23.1875 16.6465 23.2402 16.5918L24.0449 15.7871C24.0704 15.762 24.0906 15.732 24.1044 15.699C24.1182 15.6659 24.1253 15.6305 24.1253 15.5947C24.1253 15.5589 24.1182 15.5235 24.1044 15.4905C24.0906 15.4575 24.0704 15.4275 24.0449 15.4023L21.9824 13.3398H24.6113C24.7617 13.3398 24.8828 13.2188 24.8828 13.0684V11.9316C24.8828 11.7813 24.7617 11.6602 24.6113 11.6602V11.6602Z" fill="#40C0E7"/>
</svg>
