<svg width="35" height="35" viewBox="0 0 35 35" fill="none" xmlns="http://www.w3.org/2000/svg">
<path d="M33.0859 16.6797H29.3125L31.6094 14.3828C31.9375 14.0547 31.9375 13.5625 31.6094 13.2344C31.2812 12.9063 30.7891 12.9063 30.4609 13.2344L27.0156 16.6797H24.4453L25.8125 15.3125C26.1406 14.9844 26.1406 14.4922 25.8125 14.1641C25.4844 13.8359 24.9922 13.8359 24.6641 14.1641L22.1484 16.6797H19.5234L24.4453 11.7578H29.3125C29.75 11.7578 30.1328 11.375 30.1328 10.9375C30.1328 10.5 29.75 10.1172 29.3125 10.1172H26.0859L29.0938 7.10938C29.4219 6.78125 29.4219 6.28906 29.0938 5.96094C28.7656 5.63281 28.2734 5.63281 27.9453 5.96094L24.9375 8.96875V5.74219C24.8828 5.25 24.5547 4.92188 24.0625 4.92188C23.5703 4.92188 23.2422 5.30469 23.2422 5.74219V10.6094L18.3203 15.5312V12.9063L20.8359 10.3906C21.1641 10.0625 21.1641 9.57031 20.8359 9.24219C20.5078 8.91406 20.0156 8.91406 19.6875 9.24219L18.3203 10.6094V8.03906L21.7656 4.59375C22.0937 4.26562 22.0937 3.77344 21.7656 3.44531C21.4375 3.11719 20.9453 3.11719 20.6172 3.44531L18.3203 5.74219V1.91406C18.3203 1.47656 17.9375 1.09375 17.5 1.09375C17.0625 1.09375 16.6797 1.47656 16.6797 1.91406V5.6875L14.3828 3.39062C14.0547 3.0625 13.5625 3.0625 13.2344 3.39062C12.9063 3.71875 12.9063 4.21094 13.2344 4.53906L16.6797 7.98438V10.5547L15.3125 9.1875C14.9844 8.85937 14.4922 8.85937 14.1641 9.1875C13.8359 9.51562 13.8359 10.0078 14.1641 10.3359L16.6797 12.8516V15.4766L11.7578 10.5547V5.6875C11.7578 5.25 11.375 4.92188 10.9375 4.92188C10.5 4.92188 10.1172 5.30469 10.1172 5.74219V8.96875L7.10938 5.96094C6.78125 5.63281 6.28906 5.63281 5.96094 5.96094C5.63281 6.28906 5.63281 6.78125 5.96094 7.10938L8.96875 10.1172H5.74219C5.25 10.1172 4.92188 10.4453 4.92188 10.9375C4.92188 11.4297 5.30469 11.7578 5.74219 11.7578H10.6094L15.5312 16.6797H12.9063L10.3906 14.1641C10.0625 13.8359 9.57031 13.8359 9.24219 14.1641C8.91406 14.4922 8.91406 14.9844 9.24219 15.3125L10.6094 16.6797H8.03906L4.59375 13.2344C4.26562 12.9063 3.77344 12.9063 3.44531 13.2344C3.11719 13.5625 3.11719 14.0547 3.44531 14.3828L5.74219 16.6797H1.91406C1.47656 16.6797 1.09375 17.0625 1.09375 17.5C1.09375 17.9375 1.47656 18.3203 1.91406 18.3203H5.6875L3.39062 20.6172C3.0625 20.9453 3.0625 21.4375 3.39062 21.7656C3.55469 21.9297 3.77344 21.9844 3.99219 21.9844C4.21094 21.9844 4.42969 21.9297 4.59375 21.7656L8.03906 18.3203H10.6094L9.1875 19.6875C8.85937 20.0156 8.85937 20.5078 9.1875 20.8359C9.35156 21 9.57031 21.0547 9.78906 21.0547C10.0078 21.0547 10.2266 21 10.3906 20.8359L12.9063 18.3203H15.5312L10.6094 23.2422H5.74219C5.25 23.2422 4.92188 23.625 4.92188 24.0625C4.92188 24.5 5.30469 24.8828 5.74219 24.8828H8.96875L5.96094 27.8906C5.63281 28.2188 5.63281 28.7109 5.96094 29.0391C6.125 29.2031 6.34375 29.2578 6.5625 29.2578C6.78125 29.2578 7 29.2031 7.16406 29.0391L10.1719 26.0312V29.2578C10.1719 29.6953 10.5547 30.0781 10.9922 30.0781C11.4297 30.0781 11.8125 29.6953 11.8125 29.2578V24.3906L16.7344 19.4687V22.0938L14.1641 24.6094C13.8359 24.9375 13.8359 25.4297 14.1641 25.7578C14.3281 25.9219 14.5469 25.9766 14.7656 25.9766C14.9844 25.9766 15.2031 25.9219 15.3672 25.7578L16.7344 24.3906V26.9609L13.2891 30.4062C12.9609 30.7344 12.9609 31.2266 13.2891 31.5547C13.4531 31.7188 13.6719 31.7734 13.8906 31.7734C14.1094 31.7734 14.3281 31.7188 14.4922 31.5547L16.7891 29.2578V33.0313C16.7891 33.4688 17.1719 33.8516 17.6094 33.8516C18.0469 33.8516 18.4297 33.4688 18.4297 33.0313V29.2578L20.7266 31.5547C20.8906 31.7188 21.1094 31.7734 21.3281 31.7734C21.5469 31.7734 21.7656 31.7188 21.9297 31.5547C22.2578 31.2266 22.2578 30.7344 21.9297 30.4062L18.4844 26.9609V24.3906L19.8516 25.7578C20.0156 25.9219 20.2344 25.9766 20.4531 25.9766C20.6719 25.9766 20.8906 25.9219 21.0547 25.7578C21.3828 25.4297 21.3828 24.9375 21.0547 24.6094L18.5391 22.0938V19.4687L23.4609 24.3906V29.2578C23.4609 29.6953 23.8438 30.0781 24.2813 30.0781C24.7188 30.0781 25.1016 29.6953 25.1016 29.2578V26.0312L28.1094 29.0391C28.2734 29.2031 28.4922 29.2578 28.7109 29.2578C28.9297 29.2578 29.1484 29.2031 29.3125 29.0391C29.6406 28.7109 29.6406 28.2188 29.3125 27.8906L26.3047 24.8828H29.5312C29.9688 24.8828 30.3516 24.5 30.3516 24.0625C30.3516 23.625 29.9688 23.2422 29.5312 23.2422H24.6641L19.7422 18.3203H22.3672L24.8828 20.8359C25.0469 21 25.2656 21.0547 25.4844 21.0547C25.7031 21.0547 25.9219 21 26.0859 20.8359C26.4141 20.5078 26.4141 20.0156 26.0859 19.6875L24.7188 18.3203H27.2891L30.7344 21.7656C30.8984 21.9297 31.1172 21.9844 31.3359 21.9844C31.5547 21.9844 31.7734 21.9297 31.9375 21.7656C32.2656 21.4375 32.2656 20.9453 31.9375 20.6172L29.6406 18.3203H33.4141C33.8516 18.3203 34.2344 17.9375 34.2344 17.5C34.2344 17.0625 33.5234 16.6797 33.0859 16.6797" fill="#75D6FF"/>
</svg>
